<?xml version="1.0" encoding="utf-8"?>
<!-- Generator: Adobe Illustrator 19.0.0, SVG Export Plug-In . SVG Version: 6.00 Build 0)  -->
<svg version="1.1" id="Layer_1" xmlns="http://www.w3.org/2000/svg" xmlns:xlink="http://www.w3.org/1999/xlink" x="0px" y="0px"
	 viewBox="0 0 841.9 595.3" style="enable-background:new 0 0 841.9 595.3;" xml:space="preserve">
<g id="XMLID_70_">
	<path id="XMLID_71_" d="M66.9,176.7h43.6c13.8,0,24.2,1.1,31.3,3.2c7.1,2.1,12.8,6.5,17.2,13c4.4,6.5,6.5,17.1,6.5,31.6
		c0,9.8-1.5,16.7-4.6,20.5c-3.1,3.9-9.1,6.8-18.2,8.9c10.1,2.3,16.9,6.1,20.5,11.4c3.6,5.3,5.4,13.4,5.4,24.3v15.6
		c0,11.4-1.3,19.8-3.9,25.2c-2.6,5.5-6.7,9.2-12.4,11.2c-5.7,2-17.3,3-34.9,3H66.9V176.7z M110.6,205.4v37.3
		c1.9-0.1,3.3-0.1,4.4-0.1c4.3,0,7-1.1,8.2-3.2c1.2-2.1,1.8-8.1,1.8-18.1c0-5.3-0.5-8.9-1.5-11c-1-2.1-2.2-3.4-3.8-4
		C118.1,205.8,115.1,205.5,110.6,205.4z M110.6,268.9v47c6.2-0.2,10.1-1.2,11.8-2.9c1.7-1.7,2.5-6,2.5-12.8v-15.7
		c0-7.2-0.8-11.5-2.3-13.1C121.1,270,117.1,269.1,110.6,268.9z"/>
	<path id="XMLID_75_" d="M227.9,176.7v134.3h26.6v33.6h-70.2v-168H227.9z"/>
	<path id="XMLID_77_" d="M265.1,176.7h72.8v33.6h-29.2v31.8H336v32h-27.3v36.9h32.1v33.6h-75.7V176.7z"/>
	<path id="XMLID_79_" d="M450.9,176.7v168h-38.3l-22.7-76.4v76.4h-36.5v-168h36.5l24.5,75.6v-75.6H450.9z"/>
	<path id="XMLID_81_" d="M468.4,176.7h32.7c21.1,0,35.4,1,42.8,2.9c7.4,1.9,13.1,5.1,17,9.5c3.9,4.4,6.3,9.4,7.3,14.8
		c1,5.4,1.5,16.1,1.5,32v58.8c0,15.1-0.7,25.2-2.1,30.2c-1.4,5.1-3.9,9.1-7.4,11.9c-3.5,2.9-7.9,4.9-13.1,6
		c-5.2,1.1-13,1.7-23.4,1.7h-55.1V176.7z M512.1,205.4v110.5c6.3,0,10.2-1.3,11.6-3.8c1.5-2.5,2.2-9.4,2.2-20.6v-65.3
		c0-7.6-0.2-12.5-0.7-14.6c-0.5-2.1-1.6-3.7-3.3-4.7C520.1,205.9,516.9,205.4,512.1,205.4z"/>
	<path id="XMLID_84_" d="M585.8,176.7h72.8v33.6h-29.2v31.8h27.3v32h-27.3v36.9h32.1v33.6h-75.7V176.7z"/>
	<path id="XMLID_86_" d="M674.1,176.7H705c20.6,0,34.6,0.8,41.9,2.4c7.3,1.6,13.2,5.7,17.8,12.2c4.6,6.5,6.9,17,6.9,31.3
		c0,13.1-1.6,21.9-4.9,26.4c-3.3,4.5-9.6,7.2-19.2,8.1c8.6,2.1,14.5,5,17.4,8.6c3,3.6,4.8,6.9,5.6,9.9c0.7,3,1.1,11.3,1.1,24.8v44.3
		h-40.6v-55.8c0-9-0.7-14.6-2.1-16.7c-1.4-2.1-5.1-3.2-11.2-3.2v75.7h-43.7V176.7z M717.8,205.4v37.3c4.9,0,8.4-0.7,10.3-2
		c2-1.3,3-5.7,3-13.1v-9.2c0-5.3-1-8.8-2.9-10.5C726.3,206.3,722.8,205.4,717.8,205.4z"/>
</g>
<g id="XMLID_49_">
	<path id="XMLID_50_" d="M193.5,357.7l-14.3,123.5h-40.1c-3.7-19-6.9-40.6-9.7-64.8c-1.3,10.4-4.3,32-9,64.8H80.6L66.2,357.7h31.2
		l3.4,43.1l3.3,41.7c1.2-21.6,4.1-49.8,8.9-84.8h33.4c0.4,3.6,1.6,17.2,3.5,40.7l3.5,47c1.8-29.9,4.8-59.1,9-87.7H193.5z"/>
	<path id="XMLID_52_" d="M273.3,430.1c0,12.4-0.3,21.2-0.9,26.4c-0.6,5.2-2.4,9.9-5.5,14.2c-3.1,4.3-7.2,7.6-12.5,9.8
		c-5.2,2.3-11.3,3.4-18.3,3.4c-6.6,0-12.5-1.1-17.8-3.2c-5.3-2.2-9.5-5.4-12.7-9.7c-3.2-4.3-5.1-9-5.7-14.1
		c-0.6-5.1-0.9-14-0.9-26.7v-21.1c0-12.4,0.3-21.2,0.9-26.4c0.6-5.2,2.4-9.9,5.5-14.2c3.1-4.3,7.2-7.6,12.5-9.8
		c5.2-2.3,11.3-3.4,18.3-3.4c6.6,0,12.5,1.1,17.8,3.2c5.3,2.2,9.5,5.4,12.7,9.7c3.2,4.3,5.1,9,5.7,14.1s0.9,14,0.9,26.7V430.1z
		 M241.1,389.5c0-5.7-0.3-9.4-1-11c-0.6-1.6-1.9-2.4-3.9-2.4c-1.7,0-3,0.6-3.9,1.9c-0.9,1.3-1.3,5.1-1.3,11.5v57.7
		c0,7.2,0.3,11.6,0.9,13.3c0.6,1.7,1.9,2.5,4.1,2.5c2.2,0,3.6-1,4.2-2.9c0.6-1.9,0.9-6.5,0.9-13.8V389.5z"/>
	<path id="XMLID_55_" d="M285.2,357.7H308c15.2,0,25.4,0.6,30.8,1.8c5.4,1.2,9.7,4.2,13.1,9c3.4,4.8,5.1,12.5,5.1,23
		c0,9.6-1.2,16.1-3.6,19.4c-2.4,3.3-7.1,5.3-14.1,6c6.4,1.6,10.6,3.7,12.8,6.3c2.2,2.6,3.5,5.1,4.1,7.3c0.5,2.2,0.8,8.3,0.8,18.3
		v32.6h-29.8v-41c0-6.6-0.5-10.7-1.6-12.3c-1-1.6-3.8-2.4-8.2-2.4v55.7h-32.1V357.7z M317.4,378.9v27.5c3.6,0,6.1-0.5,7.6-1.5
		c1.4-1,2.2-4.2,2.2-9.7v-6.8c0-3.9-0.7-6.5-2.1-7.7C323.6,379.5,321.1,378.9,317.4,378.9z"/>
	<path id="XMLID_58_" d="M445.9,357.7l-18.4,55.8l20.2,67.7h-33.2l-13-52.9v52.9h-32.1V357.7h32.1v48l14.3-48H445.9z"/>
	<path id="XMLID_60_" d="M518.9,395.1h-29.8V386c0-4.3-0.4-7-1.1-8.2c-0.8-1.2-2-1.8-3.8-1.8c-1.9,0-3.4,0.8-4.4,2.4
		c-1,1.6-1.5,4-1.5,7.2c0,4.1,0.6,7.2,1.7,9.3c1.1,2.1,4.1,4.6,9.1,7.6c14.3,8.5,23.3,15.5,27,20.9c3.7,5.4,5.6,14.2,5.6,26.3
		c0,8.8-1,15.3-3.1,19.5c-2.1,4.2-6,7.7-11.9,10.5c-5.9,2.8-12.8,4.2-20.6,4.2c-8.6,0-15.9-1.6-22-4.9c-6.1-3.3-10.1-7.4-11.9-12.4
		c-1.9-5-2.8-12.2-2.8-21.4V437H479v15c0,4.6,0.4,7.6,1.3,8.9c0.8,1.3,2.3,2,4.5,2c2.1,0,3.7-0.8,4.8-2.5c1-1.7,1.6-4.2,1.6-7.5
		c0-7.3-1-12-3-14.3c-2-2.2-7-6-15-11.2c-8-5.3-13.3-9.1-15.9-11.5c-2.6-2.4-4.7-5.7-6.4-9.9c-1.7-4.2-2.6-9.6-2.6-16.2
		c0-9.5,1.2-16.4,3.6-20.8c2.4-4.4,6.3-7.8,11.7-10.3c5.4-2.5,11.9-3.7,19.5-3.7c8.3,0,15.4,1.3,21.3,4c5.9,2.7,9.8,6.1,11.7,10.2
		c1.9,4.1,2.9,11.1,2.9,20.9V395.1z"/>
	<path id="XMLID_62_" d="M605.5,357.7v123.5h-32.1v-51.9h-9.6v51.9h-32.1V357.7h32.1v44.2h9.6v-44.2H605.5z"/>
	<path id="XMLID_64_" d="M691.8,430.1c0,12.4-0.3,21.2-0.9,26.4c-0.6,5.2-2.4,9.9-5.5,14.2s-7.2,7.6-12.5,9.8
		c-5.2,2.3-11.3,3.4-18.3,3.4c-6.6,0-12.5-1.1-17.8-3.2c-5.3-2.2-9.5-5.4-12.7-9.7c-3.2-4.3-5.1-9-5.7-14.1
		c-0.6-5.1-0.9-14-0.9-26.7v-21.1c0-12.4,0.3-21.2,0.9-26.4c0.6-5.2,2.4-9.9,5.5-14.2c3.1-4.3,7.2-7.6,12.5-9.8
		c5.2-2.3,11.3-3.4,18.3-3.4c6.6,0,12.5,1.1,17.8,3.2c5.3,2.2,9.5,5.4,12.7,9.7c3.2,4.3,5.1,9,5.7,14.1s0.9,14,0.9,26.7V430.1z
		 M659.7,389.5c0-5.7-0.3-9.4-1-11c-0.6-1.6-1.9-2.4-3.9-2.4c-1.7,0-3,0.6-3.9,1.9c-0.9,1.3-1.3,5.1-1.3,11.5v57.7
		c0,7.2,0.3,11.6,0.9,13.3c0.6,1.7,1.9,2.5,4.1,2.5c2.2,0,3.6-1,4.2-2.9c0.6-1.9,0.9-6.5,0.9-13.8V389.5z"/>
	<path id="XMLID_67_" d="M703.8,357.7h32.3c8.7,0,15.5,0.7,20.2,2.1c4.7,1.4,8.2,3.4,10.6,6c2.4,2.6,4,5.7,4.8,9.4
		c0.8,3.7,1.3,9.4,1.3,17.1v10.8c0,7.9-0.8,13.6-2.4,17.2c-1.6,3.6-4.6,6.4-9,8.3c-4.3,1.9-10,2.9-17.1,2.9h-8.6v49.7h-32.1V357.7z
		 M735.9,378.9v31.4c0.9,0.1,1.7,0.1,2.4,0.1c2.9,0,5-0.7,6.1-2.2c1.1-1.4,1.7-4.5,1.7-9V389c0-4.2-0.7-7-2-8.2
		C742.8,379.5,740.1,378.9,735.9,378.9z"/>
</g>
<g id="XMLID_15_">
	<path id="XMLID_18_" d="M104.4,112.2H85.9v-5.7c0-2.6-0.2-4.3-0.7-5.1c-0.5-0.7-1.3-1.1-2.4-1.1c-1.2,0-2.1,0.5-2.7,1.5
		c-0.6,1-0.9,2.5-0.9,4.4c0,2.6,0.3,4.5,1,5.8c0.7,1.3,2.5,2.9,5.6,4.7c8.9,5.3,14.4,9.6,16.8,13c2.3,3.4,3.5,8.8,3.5,16.3
		c0,5.5-0.6,9.5-1.9,12.1c-1.3,2.6-3.7,4.8-7.4,6.5c-3.7,1.8-7.9,2.6-12.8,2.6c-5.3,0-9.9-1-13.6-3c-3.8-2-6.2-4.6-7.4-7.7
		c-1.2-3.1-1.8-7.6-1.8-13.3v-5h18.5v9.3c0,2.9,0.3,4.7,0.8,5.5c0.5,0.8,1.4,1.2,2.8,1.2c1.3,0,2.3-0.5,3-1.6c0.6-1,1-2.6,1-4.6
		c0-4.5-0.6-7.5-1.8-8.8c-1.3-1.4-4.4-3.7-9.3-7c-5-3.3-8.2-5.7-9.8-7.1c-1.6-1.5-2.9-3.5-4-6.1c-1.1-2.6-1.6-6-1.6-10
		c0-5.9,0.7-10.2,2.2-12.9c1.5-2.7,3.9-4.8,7.3-6.4c3.3-1.5,7.4-2.3,12.1-2.3c5.2,0,9.6,0.8,13.2,2.5c3.6,1.7,6.1,3.8,7.2,6.3
		c1.2,2.5,1.8,6.9,1.8,12.9V112.2z"/>
	<path id="XMLID_20_" d="M157.5,89v51.2c0,5.8-0.2,9.9-0.6,12.2c-0.4,2.3-1.5,4.8-3.4,7.2c-1.9,2.5-4.3,4.4-7.4,5.6
		s-6.6,1.9-10.8,1.9c-4.6,0-8.6-0.8-12.1-2.3c-3.5-1.5-6.1-3.5-7.9-5.9c-1.7-2.4-2.8-5-3.1-7.7c-0.3-2.7-0.5-8.4-0.5-17V89h19.9
		v57.4c0,3.3,0.2,5.5,0.5,6.4c0.4,0.9,1.1,1.4,2.2,1.4c1.3,0,2.1-0.5,2.4-1.5c0.4-1,0.5-3.4,0.5-7.3V89H157.5z"/>
	<path id="XMLID_22_" d="M209.7,89v76.6h-17.5l-10.4-34.8v34.8h-16.7V89h16.7l11.2,34.5V89H209.7z"/>
	<path id="XMLID_24_" d="M292.7,89l-8.9,76.6H259c-2.3-11.8-4.3-25.2-6-40.2c-0.8,6.4-2.6,19.8-5.6,40.2h-24.7L213.7,89h19.3
		l2.1,26.7l2,25.8c0.7-13.4,2.6-30.9,5.5-52.6h20.7c0.3,2.2,1,10.7,2.2,25.3l2.2,29.1c1.1-18.5,3-36.7,5.6-54.4H292.7z"/>
	<path id="XMLID_26_" d="M330.1,89l11.4,76.6h-20.4l-1.1-13.8h-7.1l-1.2,13.8h-20.6L301.3,89H330.1z M319.5,138.2
		c-1-8.7-2-19.4-3-32.2c-2,14.7-3.3,25.4-3.8,32.2H319.5z"/>
	<path id="XMLID_29_" d="M381.5,89L367,137.8v27.7h-18.4v-27.7l-14-48.9h18.3c2.9,14.9,4.5,25,4.8,30.2c1.1-8.2,3-18.2,5.5-30.2
		H381.5z"/>
	<path id="XMLID_31_" d="M425,89v15.3h-11.8v61.3h-19.9v-61.3h-11.8V89H425z"/>
	<path id="XMLID_33_" d="M429.6,89h33.2v15.3h-13.3v14.5h12.4v14.6h-12.4v16.8h14.6v15.3h-34.5V89z"/>
	<path id="XMLID_35_" d="M516.3,122.3h-19.9V109c0-3.9-0.2-6.3-0.6-7.2c-0.4-1-1.4-1.4-2.8-1.4c-1.6,0-2.7,0.6-3.1,1.8
		c-0.4,1.2-0.7,3.7-0.7,7.6v35.6c0,3.7,0.2,6.1,0.7,7.3s1.4,1.7,3,1.7c1.5,0,2.5-0.6,2.9-1.7s0.7-3.8,0.7-8v-9.6h19.9v3
		c0,7.9-0.6,13.5-1.7,16.9c-1.1,3.3-3.6,6.2-7.4,8.7c-3.8,2.5-8.6,3.7-14.2,3.7c-5.8,0-10.6-1.1-14.4-3.2s-6.3-5-7.5-8.8
		c-1.2-3.7-1.8-9.4-1.8-16.9V116c0-5.5,0.2-9.7,0.6-12.4c0.4-2.8,1.5-5.4,3.4-8c1.9-2.6,4.5-4.6,7.8-6s7.2-2.2,11.5-2.2
		c5.9,0,10.7,1.1,14.5,3.4c3.8,2.3,6.3,5.1,7.5,8.5c1.2,3.4,1.8,8.7,1.8,15.8V122.3z"/>
	<path id="XMLID_37_" d="M569.2,89v76.6h-19.9v-32.2h-6v32.2h-19.9V89h19.9v27.4h6V89H569.2z"/>
	<path id="XMLID_39_" d="M623.7,122.3h-19.9V109c0-3.9-0.2-6.3-0.6-7.2c-0.4-1-1.4-1.4-2.8-1.4c-1.6,0-2.7,0.6-3.1,1.8
		c-0.4,1.2-0.7,3.7-0.7,7.6v35.6c0,3.7,0.2,6.1,0.7,7.3s1.4,1.7,3,1.7c1.5,0,2.5-0.6,2.9-1.7s0.7-3.8,0.7-8v-9.6h19.9v3
		c0,7.9-0.6,13.5-1.7,16.9c-1.1,3.3-3.6,6.2-7.4,8.7c-3.8,2.5-8.6,3.7-14.2,3.7c-5.8,0-10.6-1.1-14.4-3.2s-6.3-5-7.5-8.8
		c-1.2-3.7-1.8-9.4-1.8-16.9V116c0-5.5,0.2-9.7,0.6-12.4c0.4-2.8,1.5-5.4,3.4-8c1.9-2.6,4.5-4.6,7.8-6s7.2-2.2,11.5-2.2
		c5.9,0,10.7,1.1,14.5,3.4c3.8,2.3,6.3,5.1,7.5,8.5c1.2,3.4,1.8,8.7,1.8,15.8V122.3z"/>
	<path id="XMLID_41_" d="M650.8,89v61.3h12.1v15.3h-32V89H650.8z"/>
	<path id="XMLID_43_" d="M713,89v51.2c0,5.8-0.2,9.9-0.6,12.2c-0.4,2.3-1.5,4.8-3.4,7.2c-1.9,2.5-4.3,4.4-7.4,5.6
		c-3,1.3-6.6,1.9-10.8,1.9c-4.6,0-8.6-0.8-12.1-2.3c-3.5-1.5-6.1-3.5-7.9-5.9c-1.7-2.4-2.8-5-3.1-7.7c-0.3-2.7-0.5-8.4-0.5-17V89
		h19.9v57.4c0,3.3,0.2,5.5,0.5,6.4c0.4,0.9,1.1,1.4,2.2,1.4c1.3,0,2.1-0.5,2.4-1.5c0.4-1,0.5-3.4,0.5-7.3V89H713z"/>
	<path id="XMLID_45_" d="M720.7,89h19.9c6.3,0,11,0.5,14.3,1.5c3.2,1,5.8,3,7.8,5.9c2,3,3,7.8,3,14.4c0,4.5-0.7,7.6-2.1,9.4
		s-4.2,3.1-8.3,4.1c4.6,1,7.7,2.8,9.4,5.2c1.6,2.4,2.5,6.1,2.5,11.1v7.1c0,5.2-0.6,9-1.8,11.5c-1.2,2.5-3.1,4.2-5.7,5.1
		c-2.6,0.9-7.9,1.4-15.9,1.4h-23V89z M740.6,102.1v17c0.9,0,1.5,0,2,0c2,0,3.2-0.5,3.7-1.4c0.5-1,0.8-3.7,0.8-8.3
		c0-2.4-0.2-4.1-0.7-5c-0.4-1-1-1.6-1.7-1.8C744.1,102.3,742.7,102.1,740.6,102.1z M740.6,131v21.4c2.8-0.1,4.6-0.5,5.4-1.3
		c0.8-0.8,1.2-2.7,1.2-5.8v-7.1c0-3.3-0.3-5.3-1-6C745.4,131.5,743.6,131.1,740.6,131z"/>
</g>
<g id="XMLID_14_">
</g>
<g id="XMLID_16_">
</g>
<g id="XMLID_17_">
</g>
<g id="XMLID_89_">
</g>
<g id="XMLID_90_">
</g>
<g id="XMLID_91_">
</g>
</svg>
